<?xml version="1.0" encoding="UTF-8" standalone="no"?>
<!-- Created with Inkscape (http://www.inkscape.org/) -->

<svg
   width="52.904278mm"
   height="34.843105mm"
   viewBox="0 0 52.904278 34.843105"
   version="1.1"
   id="svg5"
   inkscape:version="1.2.2 (b0a8486541, 2022-12-01)"
   sodipodi:docname="quanser-cube (Copy).svg"
   inkscape:export-filename="quanser-cube.png"
   inkscape:export-xdpi="96"
   inkscape:export-ydpi="96"
   xmlns:inkscape="http://www.inkscape.org/namespaces/inkscape"
   xmlns:sodipodi="http://sodipodi.sourceforge.net/DTD/sodipodi-0.dtd"
   xmlns="http://www.w3.org/2000/svg"
   xmlns:svg="http://www.w3.org/2000/svg">
  <sodipodi:namedview
     id="namedview7"
     pagecolor="#ffffff"
     bordercolor="#000000"
     borderopacity="0.25"
     inkscape:showpageshadow="2"
     inkscape:pageopacity="0"
     inkscape:pagecheckerboard="0"
     inkscape:deskcolor="#d1d1d1"
     inkscape:document-units="mm"
     showgrid="false"
     showguides="true"
     inkscape:zoom="11.313708"
     inkscape:cx="122.81561"
     inkscape:cy="68.721941"
     inkscape:window-width="2560"
     inkscape:window-height="1531"
     inkscape:window-x="0"
     inkscape:window-y="32"
     inkscape:window-maximized="1"
     inkscape:current-layer="layer1" />
  <defs
     id="defs2">
    <linearGradient
       id="linearGradient11290"
       inkscape:swatch="solid">
      <stop
         style="stop-color:#ff0000;stop-opacity:1;"
         offset="0"
         id="stop11288" />
    </linearGradient>
    <inkscape:path-effect
       effect="fill_between_many"
       method="originald"
       linkedpaths="#path7628,0,1"
       id="path-effect7655"
       is_visible="true"
       lpeversion="0"
       join="true"
       close="true"
       autoreverse="true" />
    <inkscape:path-effect
       effect="fill_between_many"
       method="originald"
       linkedpaths="#path7657,0,1"
       id="path-effect7659"
       is_visible="true"
       lpeversion="0"
       join="true"
       close="true"
       autoreverse="true" />
    <clipPath
       id="clipPath4979">
      <path
         clip-rule="nonzero"
         d="m 187,8 h 3 v 5.449219 h -3 z m 0,0"
         id="path4653" />
    </clipPath>
    <clipPath
       id="clipPath3771">
      <path
         clip-rule="nonzero"
         d="m 186,8 h 5 v 5.449219 h -5 z m 0,0"
         id="path1235" />
    </clipPath>
    <clipPath
       id="clipPath8415">
      <path
         clip-rule="nonzero"
         d="m 186,8 h 3 v 5.449219 h -3 z m 0,0"
         id="path9295" />
    </clipPath>
    <clipPath
       id="clipPath6820">
      <path
         clip-rule="nonzero"
         d="m 185,8 h 4 v 5.449219 h -4 z m 0,0"
         id="path9909" />
    </clipPath>
    <clipPath
       id="clipPath6222">
      <path
         clip-rule="nonzero"
         d="M 3,3 H 7 V 8.414062 H 3 Z m 0,0"
         id="path703" />
    </clipPath>
    <clipPath
       id="clipPath1254">
      <path
         clip-rule="nonzero"
         d="M 5,3 H 8 V 8.414062 H 5 Z m 0,0"
         id="path244" />
    </clipPath>
    <clipPath
       id="clipPath4453">
      <path
         clip-rule="nonzero"
         d="M 4,3 H 8 V 8.414062 H 4 Z m 0,0"
         id="path322" />
    </clipPath>
    <clipPath
       id="clipPath3167">
      <path
         clip-rule="nonzero"
         d="m 9,1 h 4 V 5.785156 H 9 Z m 0,0"
         id="path2699" />
    </clipPath>
    <clipPath
       id="clipPath4497">
      <path
         clip-rule="nonzero"
         d="m 9,1 h 4 V 5.785156 H 9 Z m 0,0"
         id="path8450" />
    </clipPath>
    <clipPath
       id="clipPath7475">
      <path
         clip-rule="nonzero"
         d="M 5,3 H 8 V 8.414062 H 5 Z m 0,0"
         id="path5335" />
    </clipPath>
    <clipPath
       id="clipPath59">
      <path
         clip-rule="nonzero"
         d="M 5,3 H 9 V 8.414062 H 5 Z m 0,0"
         id="path7418" />
    </clipPath>
    <clipPath
       id="clipPath6051">
      <path
         clip-rule="nonzero"
         d="m 4,2 h 7.921875 V 5.785156 H 4 Z m 0,0"
         id="path6590" />
    </clipPath>
    <clipPath
       id="clipPath3444">
      <path
         clip-rule="nonzero"
         d="M 0,0 H 5 V 6.226562 H 0 Z m 0,0"
         id="path1392" />
    </clipPath>
    <clipPath
       id="clipPath9245">
      <path
         clip-rule="nonzero"
         d="M 5,3 H 9.992188 V 8.300781 H 5 Z m 0,0"
         id="path605" />
    </clipPath>
    <clipPath
       id="clipPath777">
      <path
         clip-rule="nonzero"
         d="m 9,1 h 4 V 5.785156 H 9 Z m 0,0"
         id="path3874" />
    </clipPath>
    <clipPath
       id="clipPath8992">
      <path
         clip-rule="nonzero"
         d="M 0,0 H 5 V 6.226562 H 0 Z m 0,0"
         id="path5384" />
    </clipPath>
    <clipPath
       id="clipPath8575">
      <path
         clip-rule="nonzero"
         d="m 22,0 h 6 v 6.226562 h -6 z m 0,0"
         id="path570" />
    </clipPath>
    <clipPath
       id="clipPath6425">
      <path
         clip-rule="nonzero"
         d="M 0,0 H 4 V 3.640625 H 0 Z m 0,0"
         id="path1838" />
    </clipPath>
    <clipPath
       id="clipPath9594">
      <path
         clip-rule="nonzero"
         d="M 4,0 H 7 V 3.640625 H 4 Z m 0,0"
         id="path883" />
    </clipPath>
    <clipPath
       id="clipPath5049">
      <path
         clip-rule="nonzero"
         d="m 17,0 h 4 v 3.640625 h -4 z m 0,0"
         id="path2097" />
    </clipPath>
    <clipPath
       id="clipPath6597">
      <path
         clip-rule="nonzero"
         d="m 21,0 h 3 v 3.640625 h -3 z m 0,0"
         id="path4421" />
    </clipPath>
    <clipPath
       id="clipPath9346">
      <path
         clip-rule="nonzero"
         d="M 0,0 H 5 V 9.964844 H 0 Z m 0,0"
         id="path5271" />
    </clipPath>
    <clipPath
       id="clipPath3189">
      <path
         clip-rule="nonzero"
         d="m 10,0 h 4.945312 V 9.964844 H 10 Z m 0,0"
         id="path8183" />
    </clipPath>
    <clipPath
       id="clipPath5493">
      <path
         clip-rule="nonzero"
         d="M 0,0 H 5 V 9.964844 H 0 Z m 0,0"
         id="path3158" />
    </clipPath>
    <clipPath
       id="clipPath6044">
      <path
         clip-rule="nonzero"
         d="m 10,0 h 4.945312 V 9.964844 H 10 Z m 0,0"
         id="path5444" />
    </clipPath>
    <clipPath
       id="clipPath2741">
      <path
         clip-rule="nonzero"
         d="M 0,0 H 5 V 9.964844 H 0 Z m 0,0"
         id="path4745" />
    </clipPath>
    <clipPath
       id="clipPath9730">
      <path
         clip-rule="nonzero"
         d="m 10,0 h 4.945312 V 9.964844 H 10 Z m 0,0"
         id="path9757" />
    </clipPath>
  </defs>
  <g
     inkscape:label="Layer 1"
     inkscape:groupmode="layer"
     id="layer1"
     transform="translate(-44.6606, -72.5131)">
    <path
       style="opacity:0.38;fill:#000000;fill-opacity:1;fill-rule:nonzero;stroke:#000000;stroke-width:0.1;stroke-linecap:round;stroke-linejoin:round;stroke-dasharray:0.4, 0.4;stroke-dashoffset:0;stroke-opacity:1"
       d="M 76.240742,98.725684 V 72.513067"
       id="path17367"
       inkscape:label="vert-dash-line"
       transform="translate(1.0208333e-6)" />
    <path
       style="opacity:0.38;fill:#000000;fill-opacity:1;fill-rule:nonzero;stroke:#000000;stroke-width:0.1;stroke-linecap:round;stroke-linejoin:round;stroke-dasharray:0.4, 0.4;stroke-dashoffset:0;stroke-opacity:1"
       d="M 76.240742,88.896203 H 44.710612"
       id="path17367-9"
       sodipodi:nodetypes="cc"
       inkscape:label="horz-dash-line"
       transform="translate(1.0208333e-6)" />
    <g
       id="g16967"
       inkscape:label="quanser-box">
      <path
         id="rect468"
         style="fill:none;stroke:#000000;stroke-width:0.324116;stroke-linejoin:round;stroke-dasharray:none"
         class="UnoptimicedTransforms"
         d="m 47.640518,108.03099 v -3.56979 0 h 36 v 3.56978"
         transform="matrix(0.81760906,0,0,0.81760906,15.279402,19.028647)" />
      <path
         style="fill:none;stroke:#000000;stroke-width:0.264583;stroke-linecap:square;stroke-linejoin:round"
         d="M 54.230721,104.43707 67.998706,95.693777 H 97.432632 L 83.640518,104.4612 Z"
         id="path1326"
         sodipodi:nodetypes="ccccc" />
      <path
         id="path4293"
         style="fill:none;stroke:#000000;stroke-width:0.224959;stroke-linejoin:round"
         d="m 83.642892,107.35608 -0.0024,-2.89488 13.792114,-8.767423 -1e-6,11.662153" />
    </g>
    <g
       id="g4137"
       inkscape:label="Frame 0"
       transform="translate(1.0208333e-6)"
       style="stroke-width:0.3;stroke-dasharray:none">
      <path
         id="path2314"
         style="fill:none;stroke:#0000ff;stroke-width:0.3;stroke-linecap:round;stroke-linejoin:round;stroke-opacity:1;stroke-dasharray:none"
         d="M 76.240742,87.041887 V 86.495102"
         inkscape:label="blue2" />
      <path
         id="path4152"
         style="fill:none;stroke:#0000ff;stroke-width:0.3;stroke-linecap:round;stroke-linejoin:round;stroke-dasharray:0.30000001,0.30000001;stroke-dashoffset:0;stroke-opacity:1"
         d="M 76.240742,88.896203 V 87.041887"
         inkscape:label="blue1" />
      <path
         style="fill:none;stroke:#00ff00;stroke-width:0.3;stroke-linecap:round;stroke-linejoin:round;stroke-dasharray:0.30000001,0.60000003;stroke-dashoffset:0;stroke-opacity:1"
         d="m 76.240742,88.896203 h 2.401102"
         id="path2314-7"
         inkscape:label="green" />
      <path
         style="fill:none;stroke:#ff0000;stroke-width:0.3;stroke-linecap:round;stroke-linejoin:round;stroke-dasharray:0.30000001,0.30000001;stroke-dashoffset:0;stroke-opacity:1"
         d="m 76.240741,88.896203 1.332091,1.223093"
         id="path4132"
         sodipodi:nodetypes="cc"
         inkscape:label="red" />
    </g>
    <g
       id="g13758"
       transform="translate(3.7041668,0.52916667)"
       inkscape:label="motor-pendulum">
      <g
         id="g6804"
         inkscape:label="motor-base">
        <path
           id="path6796"
           style="fill:none;stroke:#000000;stroke-width:0.265;stroke-dasharray:none"
           d="m 81.223866,100.0432 a 8.6873407,1.5296718 0 0 1 -8.687291,1.5245 8.6873407,1.5296718 0 0 1 -8.687291,-1.5245" />
        <path
           id="path1437-7"
           style="display:inline;fill:none;stroke:#000000;stroke-width:0.265;stroke-dasharray:none"
           d="m 68.192905,97.165255 v 0" />
        <path
           id="path1229"
           style="display:inline;fill:none;stroke:#000000;stroke-width:0.265;stroke-dasharray:none"
           d="m 76.880246,97.165256 c 2.687868,0.273249 4.343669,0.778236 4.34367,1.324734 v 0 c -6e-6,0.844813 -3.889464,1.52967 -8.687341,1.52967 -4.797877,0 -8.687334,-0.684857 -8.68734,-1.52967 -10e-7,-0.546498 1.6558,-1.051485 4.34367,-1.324735" />
        <path
           id="path1227"
           style="display:inline;fill:none;stroke:#000000;stroke-width:0.265;stroke-dasharray:none"
           d="m 76.880246,97.165256 v 0" />
        <path
           id="path1437-7-6"
           style="fill:none;stroke:#000000;stroke-width:0.265;stroke-dasharray:none"
           d="m 76.880246,98.48999 v 0 a 4.3436704,0.76483589 0 0 1 -4.34367,0.764836 4.3436704,0.76483589 0 0 1 -4.343671,-0.764836" />
        <path
           style="fill:#ffffff;stroke:#000000;stroke-width:0.264999;stroke-dasharray:none"
           d="m 63.849233,98.489988 v 1.587502"
           id="path1533" />
        <path
           style="fill:#ffffff;stroke:#000000;stroke-width:0.264999;stroke-dasharray:none"
           d="m 81.223915,98.489988 v 1.587502"
           id="path1535" />
        <path
           style="fill:#ffffff;fill-opacity:1;fill-rule:nonzero;stroke:#000000;stroke-width:0.264999;stroke-linecap:round;stroke-linejoin:round;stroke-dasharray:none"
           d="M 68.192903,98.489988 V 95.132646"
           id="path12832" />
        <path
           style="fill:#ffffff;fill-opacity:1;fill-rule:nonzero;stroke:#000000;stroke-width:0.264999;stroke-linecap:round;stroke-linejoin:round;stroke-dasharray:none"
           d="M 76.880245,98.489988 V 95.132646"
           id="path12834" />
      </g>
      <g
         id="g7651"
         transform="translate(-1.2283936,-6.1766339)"
         style="display:inline"
         inkscape:label="rotary-encoder">
        <path
           id="path13631"
           style="mix-blend-mode:normal;fill:none;fill-opacity:1;fill-rule:nonzero;stroke:#000000;stroke-width:0.264999;stroke-linecap:butt;stroke-linejoin:round;stroke-dasharray:none"
           d="m 59.549798,92.773219 a 6.6740103,6.6968837 0 0 1 6.450003,-4.976403 6.6740103,6.6968837 0 0 1 6.67401,6.696857 v 0 a 6.6740103,6.6968837 0 0 1 -6.67401,6.696857 6.6740103,6.6968837 0 0 1 -6.450003,-4.976403" />
        <path
           style="mix-blend-mode:normal;fill:none;fill-opacity:1;fill-rule:nonzero;stroke:#000000;stroke-width:0.264999;stroke-linecap:square;stroke-linejoin:round;stroke-dasharray:none"
           d="m 81.415285,87.799436 a 6.6740103,6.6968837 0 0 1 6.541168,6.69553 v 0 a 6.6740103,6.6968837 0 0 1 -6.541196,6.695524"
           id="path13629" />
        <path
           style="mix-blend-mode:normal;fill:#ffffff;fill-opacity:1;fill-rule:nonzero;stroke:#000000;stroke-width:0.264999;stroke-linecap:square;stroke-linejoin:round;stroke-dasharray:none"
           d="m 65.999801,101.19053 15.415456,-4e-5"
           id="path13627"
           sodipodi:nodetypes="cc" />
        <path
           style="mix-blend-mode:normal;fill:#ffffff;fill-opacity:1;fill-rule:nonzero;stroke:#000000;stroke-width:0.264999;stroke-linecap:square;stroke-linejoin:round;stroke-dasharray:none"
           d="m 81.415285,87.799436 -15.415484,-0.0026"
           id="path7628"
           sodipodi:nodetypes="cc" />
      </g>
      <g
         id="g13011"
         transform="translate(1.4952576,-0.11875065)"
         inkscape:label="motor-stick"
         style="display:none">
        <path
           id="path12850"
           style="fill:none;fill-opacity:1;fill-rule:nonzero;stroke:#000000;stroke-width:0.264999;stroke-linecap:round;stroke-linejoin:round;stroke-dasharray:none"
           d="m 63.032112,86.705476 a 1.7303146,1.7303146 0 0 1 1.730315,1.730315 v 0 a 1.7303146,1.7303146 0 0 1 -1.730315,1.730315" />
        <path
           style="fill:none;fill-opacity:1;fill-rule:nonzero;stroke:#000000;stroke-width:0.264999;stroke-linecap:round;stroke-linejoin:round;stroke-dasharray:none"
           d="M 56.371074,86.705476 H 63.03211"
           id="path12879"
           sodipodi:nodetypes="cc" />
        <path
           style="fill:none;fill-opacity:1;fill-rule:nonzero;stroke:#000000;stroke-width:0.264999;stroke-linecap:round;stroke-linejoin:round;stroke-dasharray:none"
           d="M 63.03211,90.166104 H 56.371074"
           id="path12881"
           sodipodi:nodetypes="cc" />
      </g>
      <g
         id="g13637"
         transform="translate(1.4952576,-0.11875065)"
         inkscape:label="motor-stick-cap"
         style="display:inline">
        <circle
           style="fill:none;fill-opacity:1;fill-rule:nonzero;stroke:#000000;stroke-width:0.264999;stroke-linecap:round;stroke-linejoin:round;stroke-dasharray:none"
           id="path12850-2-1"
           cx="53.507103"
           cy="88.435791"
           r="1.7303146" />
        <path
           id="path12850-2-1-7"
           style="display:inline;fill:none;fill-opacity:1;fill-rule:nonzero;stroke:#000000;stroke-width:0.264999;stroke-linecap:round;stroke-linejoin:round;stroke-dasharray:none"
           d="m 54.03627,86.705476 a 1.7303146,1.7303146 0 0 1 1.730315,1.730315 v 0 a 1.7303146,1.7303146 0 0 1 -1.730315,1.730315" />
        <path
           style="fill:#ffffff;fill-opacity:1;fill-rule:nonzero;stroke:#000000;stroke-width:0.264999;stroke-linecap:round;stroke-linejoin:round;stroke-dasharray:none;stroke-opacity:1"
           d="m 53.507102,86.705476 h 0.529167"
           id="path13621" />
        <path
           style="fill:#ffffff;fill-opacity:1;fill-rule:nonzero;stroke:#000000;stroke-width:0.264999;stroke-linecap:round;stroke-linejoin:round;stroke-dasharray:none;stroke-opacity:1"
           d="m 53.507102,90.166104 h 0.529167"
           id="path13623" />
      </g>
      <g
         id="g13273"
         transform="rotate(90,53.963437,87.716328)"
         inkscape:label="pendulum">
        <ellipse
           style="fill:none;fill-opacity:1;fill-rule:nonzero;stroke:#000000;stroke-width:0.264999;stroke-linecap:round;stroke-linejoin:round;stroke-dasharray:none;stroke-opacity:1"
           id="path13171"
           cx="54.565437"
           cy="61.977467"
           rx="1.8056371"
           ry="0.65591872" />
        <path
           id="path13171-9"
           style="fill:none;fill-opacity:1;fill-rule:nonzero;stroke:#000000;stroke-width:0.264999;stroke-linecap:round;stroke-linejoin:round;stroke-dasharray:none;stroke-opacity:1"
           d="m 56.371074,91.610825 v 0 A 1.8056371,0.65591872 0 0 1 54.565437,92.266743 1.8056371,0.65591872 0 0 1 52.7598,91.610825" />
        <path
           id="path1671"
           style="fill:none;fill-opacity:1;fill-rule:nonzero;stroke:#000000;stroke-width:0.264999;stroke-linecap:round;stroke-linejoin:round;stroke-dasharray:none;stroke-opacity:1"
           d="m 52.7598,61.977465 v 22.786227 3.131594 3.715538"
           sodipodi:nodetypes="cccc" />
        <path
           style="fill:none;fill-opacity:1;fill-rule:nonzero;stroke:#000000;stroke-width:0.264999;stroke-linecap:round;stroke-linejoin:round;stroke-dasharray:none;stroke-opacity:1"
           d="M 56.371074,61.977465 V 91.610824"
           id="path13202" />
      </g>
    </g>
    <g
       id="g4137-5"
       inkscape:label="Frame 1"
       transform="translate(-17.534214,-0.0045219)"
       style="stroke-width:0.3;stroke-dasharray:none">
      <path
         style="fill:none;stroke:#0000ff;stroke-width:0.3;stroke-linecap:round;stroke-linejoin:round;stroke-dasharray:none;stroke-dashoffset:0;stroke-opacity:1"
         d="m 74.608569,89.425188 1.632172,-0.528985"
         id="path2314-7-6"
         inkscape:label="blue"
         sodipodi:nodetypes="cc" />
      <path
         id="path4152-5"
         style="fill:none;stroke:#00ff00;stroke-width:0.3;stroke-linecap:round;stroke-linejoin:round;stroke-dasharray:none;stroke-dashoffset:0;stroke-opacity:1"
         inkscape:label="green"
         d="m 76.240742,88.896203 v -1.854316 m 0,0 v -0.546785" />
      <path
         style="fill:none;stroke:#ff0000;stroke-width:0.3;stroke-linecap:round;stroke-linejoin:round;stroke-dasharray:none;stroke-dashoffset:0;stroke-opacity:1"
         d="m 76.240741,88.896203 1.769151,0.0045"
         id="path4132-2"
         sodipodi:nodetypes="cc"
         inkscape:label="red" />
    </g>
    <g
       id="g4137-5-9"
       inkscape:label="Frame 2"
       transform="translate(7.1657232,-0.04870801)"
       style="stroke-width:0.3;stroke-dasharray:none">
      <path
         style="fill:none;stroke:#0000ff;stroke-width:0.3;stroke-linecap:round;stroke-linejoin:round;stroke-dasharray:none;stroke-dashoffset:0;stroke-opacity:1"
         d="m 74.608569,89.425188 1.632172,-0.528985"
         id="path2314-7-6-1"
         inkscape:label="blue"
         sodipodi:nodetypes="cc" />
      <path
         id="path4152-5-2"
         style="fill:none;stroke:#00ff00;stroke-width:0.3;stroke-linecap:round;stroke-linejoin:round;stroke-dasharray:none;stroke-dashoffset:0;stroke-opacity:1"
         inkscape:label="green"
         d="m 76.240742,88.896203 v -1.854316 m 0,0 v -0.546785" />
      <path
         style="fill:none;stroke:#ff0000;stroke-width:0.3;stroke-linecap:round;stroke-linejoin:round;stroke-dasharray:none;stroke-dashoffset:0;stroke-opacity:1"
         d="m 76.240741,88.896203 1.769151,0.0045"
         id="path4132-2-7"
         sodipodi:nodetypes="cc"
         inkscape:label="red" />
    </g>
    <g
       inkscape:label="l_1"
       transform="matrix(0.5469248,0,0,0.5469248,66.91106,79.864047)"
       id="g14430">
      <g
         fill="#000000"
         fill-opacity="1"
         id="g14420"
         transform="matrix(0.352778,0,0,0.352778,-64.4668,-1.77593)">
        <g
           id="g14418"
           transform="translate(182.30299,11.956)">
          <path
             d="m 2.578125,-6.8125 c 0,0 0,-0.109375 -0.140625,-0.109375 -0.21875,0 -0.953125,0.078125 -1.21875,0.109375 -0.078125,0 -0.1875,0.015625 -0.1875,0.203125 0,0.109375 0.109375,0.109375 0.25,0.109375 0.484375,0 0.5,0.09375 0.5,0.171875 L 1.75,-6.125 0.484375,-1.140625 C 0.453125,-1.03125 0.4375,-0.96875 0.4375,-0.8125 c 0,0.578125 0.4375,0.921875 0.90625,0.921875 0.328125,0 0.578125,-0.203125 0.75,-0.5625 0.171875,-0.375 0.296875,-0.953125 0.296875,-0.96875 0,-0.109375 -0.09375,-0.109375 -0.125,-0.109375 -0.09375,0 -0.109375,0.046875 -0.125,0.1875 C 1.96875,-0.703125 1.78125,-0.109375 1.375,-0.109375 c -0.296875,0 -0.296875,-0.3125 -0.296875,-0.453125 0,-0.25 0.015625,-0.296875 0.0625,-0.484375 z m 0,0"
             id="path14416" />
        </g>
      </g>
      <g
         clip-path="url(#clipPath8415)"
         id="g14428"
         transform="matrix(0.352778,0,0,0.352778,-64.4668,-1.77593)">
        <g
           fill="#000000"
           fill-opacity="1"
           id="g14426">
          <g
             id="g14424"
             transform="translate(185.27499,13.45)">
            <path
               d="m 2.328125,-4.4375 c 0,-0.1875 0,-0.1875 -0.203125,-0.1875 -0.453125,0.4375 -1.078125,0.4375 -1.359375,0.4375 v 0.25 c 0.15625,0 0.625,0 1,-0.1875 v 3.546875 c 0,0.234375 0,0.328125 -0.6875,0.328125 H 0.8125 V 0 c 0.125,0 0.984375,-0.03125 1.234375,-0.03125 0.21875,0 1.09375,0.03125 1.25,0.03125 V -0.25 H 3.03125 c -0.703125,0 -0.703125,-0.09375 -0.703125,-0.328125 z m 0,0"
               id="path14422" />
          </g>
        </g>
      </g>
    </g>
    <g
       inkscape:label="l_2"
       transform="matrix(0.53665506,0,0,0.53665506,71.12607,91.587987)"
       id="g14606">
      <g
         fill="#000000"
         fill-opacity="1"
         id="g14596"
         transform="matrix(0.352778,0,0,0.352778,-64.4668,-1.77593)">
        <g
           id="g14594"
           transform="translate(182.30299,11.956)">
          <path
             d="m 2.578125,-6.8125 c 0,0 0,-0.109375 -0.140625,-0.109375 -0.21875,0 -0.953125,0.078125 -1.21875,0.109375 -0.078125,0 -0.1875,0.015625 -0.1875,0.203125 0,0.109375 0.109375,0.109375 0.25,0.109375 0.484375,0 0.5,0.09375 0.5,0.171875 L 1.75,-6.125 0.484375,-1.140625 C 0.453125,-1.03125 0.4375,-0.96875 0.4375,-0.8125 c 0,0.578125 0.4375,0.921875 0.90625,0.921875 0.328125,0 0.578125,-0.203125 0.75,-0.5625 0.171875,-0.375 0.296875,-0.953125 0.296875,-0.96875 0,-0.109375 -0.09375,-0.109375 -0.125,-0.109375 -0.09375,0 -0.109375,0.046875 -0.125,0.1875 C 1.96875,-0.703125 1.78125,-0.109375 1.375,-0.109375 c -0.296875,0 -0.296875,-0.3125 -0.296875,-0.453125 0,-0.25 0.015625,-0.296875 0.0625,-0.484375 z m 0,0"
             id="path14592" />
        </g>
      </g>
      <g
         clip-path="url(#clipPath6820)"
         id="g14604"
         transform="matrix(0.352778,0,0,0.352778,-64.4668,-1.77593)">
        <g
           fill="#000000"
           fill-opacity="1"
           id="g14602">
          <g
             id="g14600"
             transform="translate(185.27499,13.45)">
            <path
               d="M 3.515625,-1.265625 H 3.28125 c -0.015625,0.15625 -0.09375,0.5625 -0.1875,0.625 C 3.046875,-0.59375 2.515625,-0.59375 2.40625,-0.59375 H 1.125 c 0.734375,-0.640625 0.984375,-0.84375 1.390625,-1.171875 0.515625,-0.40625 1,-0.84375 1,-1.5 0,-0.84375 -0.734375,-1.359375 -1.625,-1.359375 -0.859375,0 -1.453125,0.609375 -1.453125,1.25 0,0.34375 0.296875,0.390625 0.375,0.390625 0.15625,0 0.359375,-0.125 0.359375,-0.375 0,-0.125 -0.046875,-0.375 -0.40625,-0.375 C 0.984375,-4.21875 1.453125,-4.375 1.78125,-4.375 c 0.703125,0 1.0625,0.546875 1.0625,1.109375 0,0.609375 -0.4375,1.078125 -0.65625,1.328125 L 0.515625,-0.265625 C 0.4375,-0.203125 0.4375,-0.1875 0.4375,0 h 2.875 z m 0,0"
               id="path14598" />
          </g>
        </g>
      </g>
    </g>
    <g
       inkscape:label="theta_1"
       transform="translate(74.908652,76.461567)"
       id="g16002">
      <g
         fill="#000000"
         fill-opacity="1"
         id="g15992"
         transform="matrix(0.352778,0,0,0.352778,-0.148828,0.0395993)">
        <g
           id="g15990"
           transform="translate(0,6.9190001)">
          <path
             d="m 4.53125,-4.984375 c 0,-0.65625 -0.171875,-2.046875 -1.1875,-2.046875 -1.390625,0 -2.921875,2.8125 -2.921875,5.09375 0,0.9375 0.28125,2.046875 1.1875,2.046875 1.40625,0 2.921875,-2.859375 2.921875,-5.09375 z M 1.46875,-3.625 C 1.640625,-4.25 1.84375,-5.046875 2.25,-5.765625 2.515625,-6.25 2.875,-6.8125 3.328125,-6.8125 c 0.484375,0 0.546875,0.640625 0.546875,1.203125 0,0.5 -0.078125,1 -0.3125,1.984375 z m 2,0.328125 C 3.359375,-2.84375 3.15625,-2 2.765625,-1.28125 c -0.34375,0.6875 -0.71875,1.171875 -1.15625,1.171875 -0.328125,0 -0.53125,-0.296875 -0.53125,-1.21875 0,-0.421875 0.0625,-1 0.3125,-1.96875 z m 0,0"
             id="path15988" />
        </g>
      </g>
      <g
         clip-path="url(#clipPath7475)"
         id="g16000"
         transform="matrix(0.352778,0,0,0.352778,-0.148828,0.0395993)">
        <g
           fill="#000000"
           fill-opacity="1"
           id="g15998">
          <g
             id="g15996"
             transform="translate(4.677,8.4130001)">
            <path
               d="m 2.328125,-4.4375 c 0,-0.1875 0,-0.1875 -0.203125,-0.1875 -0.453125,0.4375 -1.078125,0.4375 -1.359375,0.4375 v 0.25 c 0.15625,0 0.625,0 1,-0.1875 v 3.546875 c 0,0.234375 0,0.328125 -0.6875,0.328125 H 0.8125 V 0 c 0.125,0 0.984375,-0.03125 1.234375,-0.03125 0.21875,0 1.09375,0.03125 1.25,0.03125 V -0.25 H 3.03125 c -0.703125,0 -0.703125,-0.09375 -0.703125,-0.328125 z m 0,0"
               id="path15994" />
          </g>
        </g>
      </g>
    </g>
    <g
       inkscape:label="theta_2"
       transform="translate(49.472741,87.342447)"
       id="g16302">
      <g
         fill="#000000"
         fill-opacity="1"
         id="g16292"
         transform="matrix(0.352778,0,0,0.352778,-0.148828,0.0395993)">
        <g
           id="g16290"
           transform="translate(0,6.9190001)">
          <path
             d="m 4.53125,-4.984375 c 0,-0.65625 -0.171875,-2.046875 -1.1875,-2.046875 -1.390625,0 -2.921875,2.8125 -2.921875,5.09375 0,0.9375 0.28125,2.046875 1.1875,2.046875 1.40625,0 2.921875,-2.859375 2.921875,-5.09375 z M 1.46875,-3.625 C 1.640625,-4.25 1.84375,-5.046875 2.25,-5.765625 2.515625,-6.25 2.875,-6.8125 3.328125,-6.8125 c 0.484375,0 0.546875,0.640625 0.546875,1.203125 0,0.5 -0.078125,1 -0.3125,1.984375 z m 2,0.328125 C 3.359375,-2.84375 3.15625,-2 2.765625,-1.28125 c -0.34375,0.6875 -0.71875,1.171875 -1.15625,1.171875 -0.328125,0 -0.53125,-0.296875 -0.53125,-1.21875 0,-0.421875 0.0625,-1 0.3125,-1.96875 z m 0,0"
             id="path16288" />
        </g>
      </g>
      <g
         clip-path="url(#clipPath59)"
         id="g16300"
         transform="matrix(0.352778,0,0,0.352778,-0.148828,0.0395993)">
        <g
           fill="#000000"
           fill-opacity="1"
           id="g16298">
          <g
             id="g16296"
             transform="translate(4.677,8.4130001)">
            <path
               d="M 3.515625,-1.265625 H 3.28125 c -0.015625,0.15625 -0.09375,0.5625 -0.1875,0.625 C 3.046875,-0.59375 2.515625,-0.59375 2.40625,-0.59375 H 1.125 c 0.734375,-0.640625 0.984375,-0.84375 1.390625,-1.171875 0.515625,-0.40625 1,-0.84375 1,-1.5 0,-0.84375 -0.734375,-1.359375 -1.625,-1.359375 -0.859375,0 -1.453125,0.609375 -1.453125,1.25 0,0.34375 0.296875,0.390625 0.375,0.390625 0.15625,0 0.359375,-0.125 0.359375,-0.375 0,-0.125 -0.046875,-0.375 -0.40625,-0.375 C 0.984375,-4.21875 1.453125,-4.375 1.78125,-4.375 c 0.703125,0 1.0625,0.546875 1.0625,1.109375 0,0.609375 -0.4375,1.078125 -0.65625,1.328125 L 0.515625,-0.265625 C 0.4375,-0.203125 0.4375,-0.1875 0.4375,0 h 2.875 z m 0,0"
               id="path16294" />
          </g>
        </g>
      </g>
    </g>
    <g
       id="g18558"
       inkscape:label="l_2-length"
       transform="rotate(90,55.203121,92.641893)">
      <path
         style="fill:#ffffff;fill-opacity:1;fill-rule:nonzero;stroke:#000000;stroke-width:0.132;stroke-linecap:round;stroke-linejoin:round;stroke-dasharray:none;stroke-opacity:1"
         d="m 54.945787,75.191094 0.0076,-10.752545"
         id="path17027"
         sodipodi:nodetypes="cc" />
      <path
         style="fill:#ffffff;fill-opacity:1;fill-rule:nonzero;stroke:#000000;stroke-width:0.132;stroke-linecap:round;stroke-linejoin:round;stroke-dasharray:none;stroke-opacity:1"
         d="m 54.945789,89.188487 -10e-7,-11.889405"
         id="path17027-6"
         sodipodi:nodetypes="cc" />
      <path
         style="fill:#ffffff;fill-opacity:1;fill-rule:nonzero;stroke:#000000;stroke-width:0.132;stroke-linecap:round;stroke-linejoin:round;stroke-dasharray:none;stroke-opacity:1"
         d="m 54.034281,64.438549 h 1.823011"
         id="path17056" />
      <path
         style="fill:#ffffff;fill-opacity:1;fill-rule:nonzero;stroke:#000000;stroke-width:0.132;stroke-linecap:round;stroke-linejoin:round;stroke-dasharray:none;stroke-opacity:1"
         d="m 54.034283,89.188487 h 1.823011"
         id="path17056-0" />
    </g>
    <g
       id="g18552"
       inkscape:label="l_1-length"
       transform="translate(-1.058332,19.173693)">
      <path
         style="fill:#ffffff;fill-opacity:1;fill-rule:nonzero;stroke:#000000;stroke-width:0.132;stroke-linecap:round;stroke-linejoin:round;stroke-dasharray:none;stroke-opacity:1"
         d="m 59.76486,60.590665 v 1.823011"
         id="path17056-6" />
      <path
         style="fill:#ffffff;fill-opacity:1;fill-rule:nonzero;stroke:#000000;stroke-width:0.132;stroke-linecap:round;stroke-linejoin:round;stroke-dasharray:none;stroke-opacity:1"
         d="m 77.299075,60.590665 v 1.823011"
         id="path17056-6-2" />
      <path
         id="path17147"
         style="fill:none;fill-opacity:1;fill-rule:nonzero;stroke:#000000;stroke-width:0.132;stroke-linecap:round;stroke-linejoin:round;stroke-dasharray:none;stroke-opacity:1"
         d="m 69.299927,61.502171 h 7.999148" />
      <path
         id="path6189"
         style="fill:none;fill-opacity:1;fill-rule:nonzero;stroke:#000000;stroke-width:0.132;stroke-linecap:round;stroke-linejoin:round;stroke-dasharray:none;stroke-opacity:1"
         d="m 59.822287,61.50217 7.73478,10e-7"
         sodipodi:nodetypes="cc" />
    </g>
    <g
       id="g17275-7"
       transform="matrix(0.42902272,0,0,0.42902272,43.469338,43.723262)"
       style="stroke-width:0.307676;stroke-dasharray:none"
       inkscape:label="theta_1-arrow">
      <path
         id="path1437-7-61-9"
         style="fill:none;stroke:#000000;stroke-width:0.307676;stroke-linecap:round;stroke-dasharray:none"
         d="m 70.761345,71.935866 a 8.6873407,1.5296718 0 0 1 1.892837,-0.03675 8.6873407,1.5296718 0 0 1 8.687341,1.529672 v 0 a 8.6873407,1.5296718 0 0 1 -8.687341,1.529672 8.6873407,1.5296718 0 0 1 -8.68734,-1.529672 8.6873407,1.5296718 0 0 1 3.514079,-1.228876"
         transform="translate(3.7041669,0.52916667)" />
      <path
         style="fill:#ffffff;fill-opacity:1;fill-rule:nonzero;stroke:#000000;stroke-width:0.307676;stroke-linecap:round;stroke-linejoin:round;stroke-dasharray:none;stroke-opacity:1"
         d="m 74.46551,72.465032 0.816573,-0.494839"
         id="path17243-2" />
      <path
         style="fill:#ffffff;fill-opacity:1;fill-rule:nonzero;stroke:#000000;stroke-width:0.307676;stroke-linecap:round;stroke-linejoin:round;stroke-dasharray:none;stroke-opacity:1"
         d="m 74.46551,72.465032 0.816573,0.494839"
         id="path17243-8-0" />
    </g>
    <g
       id="g17275-7-2"
       transform="matrix(0,-0.42902272,0.42902272,0,15.925134,121.60567)"
       style="stroke-width:0.307676;stroke-dasharray:none"
       inkscape:label="theta_2-arrow">
      <path
         id="path1437-7-61-9-3"
         style="fill:none;stroke:#000000;stroke-width:0.307676;stroke-linecap:round;stroke-dasharray:none"
         d="m 70.761345,71.935866 a 8.6873407,1.5296718 0 0 1 1.892837,-0.03675 8.6873407,1.5296718 0 0 1 8.687341,1.529672 v 0 a 8.6873407,1.5296718 0 0 1 -8.687341,1.529672 8.6873407,1.5296718 0 0 1 -8.68734,-1.529672 8.6873407,1.5296718 0 0 1 3.514079,-1.228876"
         transform="translate(3.7041669,0.52916667)" />
      <path
         style="fill:#ffffff;fill-opacity:1;fill-rule:nonzero;stroke:#000000;stroke-width:0.307676;stroke-linecap:round;stroke-linejoin:round;stroke-dasharray:none;stroke-opacity:1"
         d="m 74.46551,72.465032 0.816573,-0.494839"
         id="path17243-2-7" />
      <path
         style="fill:#ffffff;fill-opacity:1;fill-rule:nonzero;stroke:#000000;stroke-width:0.307676;stroke-linecap:round;stroke-linejoin:round;stroke-dasharray:none;stroke-opacity:1"
         d="m 74.46551,72.465032 0.816573,0.494839"
         id="path17243-8-0-5" />
    </g>
    <path
       style="fill:none;stroke:#000000;stroke-width:0.1;stroke-linecap:round;stroke-linejoin:round;stroke-dasharray:0.1, 0.2;stroke-dashoffset:0;stroke-opacity:1"
       d="M 76.240742,88.896203 C 66.342352,71.727069 61.174303,74.364219 58.706527,88.891703"
       id="path6248"
       sodipodi:nodetypes="cc" />
    <path
       style="fill:none;stroke:#000000;stroke-width:0.1;stroke-linecap:round;stroke-linejoin:round;stroke-dasharray:none;stroke-dashoffset:0;stroke-opacity:1"
       d="m 58.706527,88.891703 -0.111003,-0.54336"
       id="path6250" />
    <path
       style="fill:none;stroke:#000000;stroke-width:0.1;stroke-linecap:round;stroke-linejoin:round;stroke-dasharray:none;stroke-dashoffset:0;stroke-opacity:1"
       d="m 58.706527,88.891681 0.366017,-0.416646"
       id="path6250-0" />
    <g
       inkscape:label=""
       transform="matrix(0.48214481,0,0,0.48214481,62.133394,75.625858)"
       id="g7082">
      <g
         clip-path="url(#clipPath8992)"
         id="g28"
         transform="matrix(0.352778,0,0,0.352778,0.110243,0.0410104)">
        <g
           fill="#000000"
           fill-opacity="1"
           id="g26">
          <g
             id="use24"
             transform="translate(0,4.29)">
            <path
               d="M 0.453125,1.21875 C 0.375,1.5625 0.34375,1.625 -0.09375,1.625 c -0.109375,0 -0.21875,0 -0.21875,0.1875 0,0.078125 0.046875,0.125 0.125,0.125 0.265625,0 0.5625,-0.03125 0.828125,-0.03125 0.34375,0 0.671875,0.03125 1,0.03125 0.046875,0 0.171875,0 0.171875,-0.203125 C 1.8125,1.625 1.71875,1.625 1.578125,1.625 c -0.5,0 -0.5,-0.0625 -0.5,-0.15625 0,-0.125 0.421875,-1.75 0.484375,-2 0.125,0.296875 0.40625,0.640625 0.921875,0.640625 1.15625,0 2.40625,-1.453125 2.40625,-2.921875 0,-0.9375 -0.578125,-1.59375 -1.328125,-1.59375 -0.5,0 -0.984375,0.359375 -1.3125,0.75 -0.09375,-0.546875 -0.53125,-0.75 -0.890625,-0.75 -0.46875,0 -0.65625,0.390625 -0.734375,0.5625 C 0.4375,-3.5 0.3125,-2.90625 0.3125,-2.875 c 0,0.109375 0.09375,0.109375 0.109375,0.109375 0.109375,0 0.109375,-0.015625 0.171875,-0.234375 0.171875,-0.703125 0.375,-1.1875 0.734375,-1.1875 0.171875,0 0.3125,0.078125 0.3125,0.453125 0,0.234375 -0.03125,0.34375 -0.078125,0.515625 z m 1.75,-4.328125 C 2.265625,-3.375 2.546875,-3.65625 2.71875,-3.8125 c 0.359375,-0.296875 0.640625,-0.375 0.8125,-0.375 0.390625,0 0.640625,0.34375 0.640625,0.9375 0,0.59375 -0.328125,1.734375 -0.515625,2.109375 -0.34375,0.703125 -0.8125,1.03125 -1.1875,1.03125 C 1.8125,-0.109375 1.6875,-0.9375 1.6875,-1 c 0,-0.015625 0,-0.03125 0.03125,-0.15625 z m 0,0"
               id="path52" />
          </g>
        </g>
      </g>
      <g
         fill="#000000"
         fill-opacity="1"
         id="g32"
         transform="matrix(0.352778,0,0,0.352778,0.110243,0.0410104)">
        <g
           id="use30"
           transform="translate(5.0120001,5.7839999)">
          <path
             d="M 3.59375,-2.21875 C 3.59375,-2.984375 3.5,-3.546875 3.1875,-4.03125 2.96875,-4.34375 2.53125,-4.625 1.984375,-4.625 c -1.625,0 -1.625,1.90625 -1.625,2.40625 0,0.5 0,2.359375 1.625,2.359375 1.609375,0 1.609375,-1.859375 1.609375,-2.359375 z M 1.984375,-0.0625 c -0.328125,0 -0.75,-0.1875 -0.890625,-0.75 C 1,-1.21875 1,-1.796875 1,-2.3125 1,-2.828125 1,-3.359375 1.09375,-3.734375 1.25,-4.28125 1.6875,-4.4375 1.984375,-4.4375 c 0.375,0 0.734375,0.234375 0.859375,0.640625 0.109375,0.375 0.125,0.875 0.125,1.484375 0,0.515625 0,1.03125 -0.09375,1.46875 -0.140625,0.640625 -0.609375,0.78125 -0.890625,0.78125 z m 0,0"
             id="path56" />
        </g>
      </g>
      <g
         fill="#000000"
         fill-opacity="1"
         id="g36"
         transform="matrix(0.352778,0,0,0.352778,0.110243,0.0410104)">
        <g
           id="use34"
           transform="translate(12.249,4.29)">
          <path
             d="m 6.84375,-3.265625 c 0.15625,0 0.34375,0 0.34375,-0.1875 C 7.1875,-3.65625 7,-3.65625 6.859375,-3.65625 h -5.96875 c -0.140625,0 -0.328125,0 -0.328125,0.203125 0,0.1875 0.1875,0.1875 0.328125,0.1875 z m 0.015625,1.9375 c 0.140625,0 0.328125,0 0.328125,-0.203125 0,-0.1875 -0.1875,-0.1875 -0.34375,-0.1875 H 0.890625 c -0.140625,0 -0.328125,0 -0.328125,0.1875 0,0.203125 0.1875,0.203125 0.328125,0.203125 z m 0,0"
             id="path60" />
        </g>
      </g>
      <g
         clip-path="url(#clipPath8575)"
         id="g42"
         transform="matrix(0.352778,0,0,0.352778,0.110243,0.0410104)">
        <g
           fill="#000000"
           fill-opacity="1"
           id="g40">
          <g
             id="use38"
             transform="translate(22.764999,4.29)">
            <path
               d="M 0.453125,1.21875 C 0.375,1.5625 0.34375,1.625 -0.09375,1.625 c -0.109375,0 -0.21875,0 -0.21875,0.1875 0,0.078125 0.046875,0.125 0.125,0.125 0.265625,0 0.5625,-0.03125 0.828125,-0.03125 0.34375,0 0.671875,0.03125 1,0.03125 0.046875,0 0.171875,0 0.171875,-0.203125 C 1.8125,1.625 1.71875,1.625 1.578125,1.625 c -0.5,0 -0.5,-0.0625 -0.5,-0.15625 0,-0.125 0.421875,-1.75 0.484375,-2 0.125,0.296875 0.40625,0.640625 0.921875,0.640625 1.15625,0 2.40625,-1.453125 2.40625,-2.921875 0,-0.9375 -0.578125,-1.59375 -1.328125,-1.59375 -0.5,0 -0.984375,0.359375 -1.3125,0.75 -0.09375,-0.546875 -0.53125,-0.75 -0.890625,-0.75 -0.46875,0 -0.65625,0.390625 -0.734375,0.5625 C 0.4375,-3.5 0.3125,-2.90625 0.3125,-2.875 c 0,0.109375 0.09375,0.109375 0.109375,0.109375 0.109375,0 0.109375,-0.015625 0.171875,-0.234375 0.171875,-0.703125 0.375,-1.1875 0.734375,-1.1875 0.171875,0 0.3125,0.078125 0.3125,0.453125 0,0.234375 -0.03125,0.34375 -0.078125,0.515625 z m 1.75,-4.328125 C 2.265625,-3.375 2.546875,-3.65625 2.71875,-3.8125 c 0.359375,-0.296875 0.640625,-0.375 0.8125,-0.375 0.390625,0 0.640625,0.34375 0.640625,0.9375 0,0.59375 -0.328125,1.734375 -0.515625,2.109375 -0.34375,0.703125 -0.8125,1.03125 -1.1875,1.03125 C 1.8125,-0.109375 1.6875,-0.9375 1.6875,-1 c 0,-0.015625 0,-0.03125 0.03125,-0.15625 z m 0,0"
               id="path64" />
          </g>
        </g>
      </g>
      <g
         fill="#000000"
         fill-opacity="1"
         id="g46"
         transform="matrix(0.352778,0,0,0.352778,0.110243,0.0410104)">
        <g
           id="use44"
           transform="translate(27.778,5.7839999)">
          <path
             d="m 2.328125,-4.4375 c 0,-0.1875 0,-0.1875 -0.203125,-0.1875 -0.453125,0.4375 -1.078125,0.4375 -1.359375,0.4375 v 0.25 c 0.15625,0 0.625,0 1,-0.1875 v 3.546875 c 0,0.234375 0,0.328125 -0.6875,0.328125 H 0.8125 V 0 c 0.125,0 0.984375,-0.03125 1.234375,-0.03125 0.21875,0 1.09375,0.03125 1.25,0.03125 V -0.25 H 3.03125 c -0.703125,0 -0.703125,-0.09375 -0.703125,-0.328125 z m 0,0"
             id="path68" />
        </g>
      </g>
    </g>
    <g
       inkscape:label=""
       transform="matrix(0.47289607,0,0,0.47289607,76.597228,85.032467)"
       id="g8846">
      <g
         clip-path="url(#clipPath9346)"
         id="g25"
         transform="matrix(0.352778,0,0,0.352778,-0.253559,0.00436558)">
        <g
           fill="#000000"
           fill-opacity="1"
           id="g23">
          <g
             id="use21"
             transform="translate(0,7.4720001)">
            <path
               d="m 2.828125,-6.15625 c 0,-0.390625 0.25,-1.03125 1.34375,-1.09375 C 4.21875,-7.265625 4.25,-7.3125 4.25,-7.359375 c 0,-0.125 -0.078125,-0.125 -0.1875,-0.125 -0.984375,0 -1.90625,0.515625 -1.90625,1.25 v 2.28125 c 0,0.390625 0,0.703125 -0.40625,1.03125 -0.34375,0.296875 -0.71875,0.3125 -0.9375,0.3125 C 0.75,-2.59375 0.71875,-2.546875 0.71875,-2.5 c 0,0.109375 0.0625,0.109375 0.15625,0.125 0.65625,0.03125 1.140625,0.390625 1.25,0.875 0.03125,0.109375 0.03125,0.140625 0.03125,0.5 v 1.96875 c 0,0.421875 0,0.734375 0.46875,1.109375 C 3.015625,2.375 3.671875,2.5 4.0625,2.5 4.171875,2.5 4.25,2.5 4.25,2.375 4.25,2.28125 4.203125,2.28125 4.09375,2.265625 3.46875,2.234375 2.984375,1.90625 2.84375,1.40625 2.828125,1.3125 2.828125,1.296875 2.828125,0.9375 v -2.09375 c 0,-0.453125 -0.09375,-0.625 -0.40625,-0.953125 C 2.21875,-2.3125 1.921875,-2.40625 1.640625,-2.5 c 0.828125,-0.21875 1.1875,-0.6875 1.1875,-1.265625 z m 0,0"
               id="path41" />
          </g>
        </g>
      </g>
      <g
         fill="#000000"
         fill-opacity="1"
         id="g29"
         transform="matrix(0.352778,0,0,0.352778,-0.253559,0.00436558)">
        <g
           id="use27"
           transform="translate(4.9809999,7.4720001)">
          <path
             d="m 4.578125,-3.1875 c 0,-0.796875 -0.046875,-1.59375 -0.390625,-2.328125 -0.453125,-0.96875 -1.28125,-1.125 -1.6875,-1.125 -0.609375,0 -1.328125,0.265625 -1.75,1.1875 -0.3125,0.6875 -0.359375,1.46875 -0.359375,2.265625 0,0.75 0.03125,1.640625 0.453125,2.40625 0.421875,0.796875 1.15625,1 1.640625,1 0.53125,0 1.296875,-0.203125 1.734375,-1.15625 0.3125,-0.6875 0.359375,-1.46875 0.359375,-2.25 z M 2.484375,0 C 2.09375,0 1.5,-0.25 1.328125,-1.203125 1.21875,-1.796875 1.21875,-2.71875 1.21875,-3.3125 c 0,-0.640625 0,-1.296875 0.078125,-1.828125 0.1875,-1.1875 0.9375,-1.28125 1.1875,-1.28125 0.328125,0 0.984375,0.1875 1.171875,1.171875 0.109375,0.5625 0.109375,1.3125 0.109375,1.9375 0,0.75 0,1.421875 -0.109375,2.0625 C 3.5,-0.296875 2.9375,0 2.484375,0 Z m 0,0"
             id="path45" />
        </g>
      </g>
      <g
         clip-path="url(#clipPath3189)"
         id="g35"
         transform="matrix(0.352778,0,0,0.352778,-0.253559,0.00436558)">
        <g
           fill="#000000"
           fill-opacity="1"
           id="g33">
          <g
             id="use31"
             transform="translate(9.9630003,7.4720001)">
            <path
               d="m 2.15625,1.171875 c 0,0.390625 -0.265625,1.03125 -1.34375,1.09375 C 0.75,2.28125 0.71875,2.328125 0.71875,2.375 0.71875,2.5 0.828125,2.5 0.921875,2.5 1.890625,2.5 2.8125,2 2.828125,1.25 v -2.28125 c 0,-0.390625 0,-0.703125 0.390625,-1.03125 C 3.5625,-2.359375 3.953125,-2.375 4.171875,-2.375 4.21875,-2.390625 4.25,-2.4375 4.25,-2.5 4.25,-2.59375 4.203125,-2.59375 4.09375,-2.609375 3.4375,-2.640625 2.953125,-3 2.84375,-3.484375 2.828125,-3.59375 2.828125,-3.625 2.828125,-3.984375 v -1.96875 c 0,-0.421875 0,-0.734375 -0.484375,-1.109375 C 1.9375,-7.375 1.25,-7.484375 0.921875,-7.484375 c -0.09375,0 -0.203125,0 -0.203125,0.125 0,0.09375 0.0625,0.09375 0.15625,0.109375 0.625,0.03125 1.125,0.359375 1.25,0.859375 0.03125,0.09375 0.03125,0.109375 0.03125,0.46875 v 2.09375 c 0,0.453125 0.078125,0.625 0.390625,0.953125 0.21875,0.203125 0.5,0.296875 0.78125,0.375 -0.8125,0.234375 -1.171875,0.703125 -1.171875,1.28125 z m 0,0"
               id="path49" />
          </g>
        </g>
      </g>
    </g>
    <g
       inkscape:label=""
       transform="matrix(0.47382286,0,0,0.47382286,59.368193,85.030398)"
       id="g9262">
      <g
         clip-path="url(#clipPath5493)"
         id="g9246"
         transform="matrix(0.352778,0,0,0.352778,-0.253559,0.00436558)">
        <g
           fill="#000000"
           fill-opacity="1"
           id="g9244">
          <g
             id="g9242"
             transform="translate(0,7.4720001)">
            <path
               d="m 2.828125,-6.15625 c 0,-0.390625 0.25,-1.03125 1.34375,-1.09375 C 4.21875,-7.265625 4.25,-7.3125 4.25,-7.359375 c 0,-0.125 -0.078125,-0.125 -0.1875,-0.125 -0.984375,0 -1.90625,0.515625 -1.90625,1.25 v 2.28125 c 0,0.390625 0,0.703125 -0.40625,1.03125 -0.34375,0.296875 -0.71875,0.3125 -0.9375,0.3125 C 0.75,-2.59375 0.71875,-2.546875 0.71875,-2.5 c 0,0.109375 0.0625,0.109375 0.15625,0.125 0.65625,0.03125 1.140625,0.390625 1.25,0.875 0.03125,0.109375 0.03125,0.140625 0.03125,0.5 v 1.96875 c 0,0.421875 0,0.734375 0.46875,1.109375 C 3.015625,2.375 3.671875,2.5 4.0625,2.5 4.171875,2.5 4.25,2.5 4.25,2.375 4.25,2.28125 4.203125,2.28125 4.09375,2.265625 3.46875,2.234375 2.984375,1.90625 2.84375,1.40625 2.828125,1.3125 2.828125,1.296875 2.828125,0.9375 v -2.09375 c 0,-0.453125 -0.09375,-0.625 -0.40625,-0.953125 C 2.21875,-2.3125 1.921875,-2.40625 1.640625,-2.5 c 0.828125,-0.21875 1.1875,-0.6875 1.1875,-1.265625 z m 0,0"
               id="path9240" />
          </g>
        </g>
      </g>
      <g
         fill="#000000"
         fill-opacity="1"
         id="g9252"
         transform="matrix(0.352778,0,0,0.352778,-0.253559,0.00436558)">
        <g
           id="g9250"
           transform="translate(4.9809999,7.4720001)">
          <path
             d="m 2.9375,-6.375 c 0,-0.25 0,-0.265625 -0.234375,-0.265625 C 2.078125,-6 1.203125,-6 0.890625,-6 v 0.3125 c 0.203125,0 0.78125,0 1.296875,-0.265625 v 5.171875 c 0,0.359375 -0.03125,0.46875 -0.921875,0.46875 h -0.3125 V 0 c 0.34375,-0.03125 1.203125,-0.03125 1.609375,-0.03125 0.390625,0 1.265625,0 1.609375,0.03125 v -0.3125 h -0.3125 c -0.90625,0 -0.921875,-0.109375 -0.921875,-0.46875 z m 0,0"
             id="path9248" />
        </g>
      </g>
      <g
         clip-path="url(#clipPath6044)"
         id="g9260"
         transform="matrix(0.352778,0,0,0.352778,-0.253559,0.00436558)">
        <g
           fill="#000000"
           fill-opacity="1"
           id="g9258">
          <g
             id="g9256"
             transform="translate(9.9630003,7.4720001)">
            <path
               d="m 2.15625,1.171875 c 0,0.390625 -0.265625,1.03125 -1.34375,1.09375 C 0.75,2.28125 0.71875,2.328125 0.71875,2.375 0.71875,2.5 0.828125,2.5 0.921875,2.5 1.890625,2.5 2.8125,2 2.828125,1.25 v -2.28125 c 0,-0.390625 0,-0.703125 0.390625,-1.03125 C 3.5625,-2.359375 3.953125,-2.375 4.171875,-2.375 4.21875,-2.390625 4.25,-2.4375 4.25,-2.5 4.25,-2.59375 4.203125,-2.59375 4.09375,-2.609375 3.4375,-2.640625 2.953125,-3 2.84375,-3.484375 2.828125,-3.59375 2.828125,-3.625 2.828125,-3.984375 v -1.96875 c 0,-0.421875 0,-0.734375 -0.484375,-1.109375 C 1.9375,-7.375 1.25,-7.484375 0.921875,-7.484375 c -0.09375,0 -0.203125,0 -0.203125,0.125 0,0.09375 0.0625,0.09375 0.15625,0.109375 0.625,0.03125 1.125,0.359375 1.25,0.859375 0.03125,0.09375 0.03125,0.109375 0.03125,0.46875 v 2.09375 c 0,0.453125 0.078125,0.625 0.390625,0.953125 0.21875,0.203125 0.5,0.296875 0.78125,0.375 -0.8125,0.234375 -1.171875,0.703125 -1.171875,1.28125 z m 0,0"
               id="path9254" />
          </g>
        </g>
      </g>
    </g>
    <g
       inkscape:label=""
       transform="matrix(0.47197089,0,0,0.47197089,83.93718,85.464756)"
       id="g9710">
      <g
         clip-path="url(#clipPath2741)"
         id="g9694"
         transform="matrix(0.352778,0,0,0.352778,-0.253559,0.00436558)">
        <g
           fill="#000000"
           fill-opacity="1"
           id="g9692">
          <g
             id="g9690"
             transform="translate(0,7.4720001)">
            <path
               d="m 2.828125,-6.15625 c 0,-0.390625 0.25,-1.03125 1.34375,-1.09375 C 4.21875,-7.265625 4.25,-7.3125 4.25,-7.359375 c 0,-0.125 -0.078125,-0.125 -0.1875,-0.125 -0.984375,0 -1.90625,0.515625 -1.90625,1.25 v 2.28125 c 0,0.390625 0,0.703125 -0.40625,1.03125 -0.34375,0.296875 -0.71875,0.3125 -0.9375,0.3125 C 0.75,-2.59375 0.71875,-2.546875 0.71875,-2.5 c 0,0.109375 0.0625,0.109375 0.15625,0.125 0.65625,0.03125 1.140625,0.390625 1.25,0.875 0.03125,0.109375 0.03125,0.140625 0.03125,0.5 v 1.96875 c 0,0.421875 0,0.734375 0.46875,1.109375 C 3.015625,2.375 3.671875,2.5 4.0625,2.5 4.171875,2.5 4.25,2.5 4.25,2.375 4.25,2.28125 4.203125,2.28125 4.09375,2.265625 3.46875,2.234375 2.984375,1.90625 2.84375,1.40625 2.828125,1.3125 2.828125,1.296875 2.828125,0.9375 v -2.09375 c 0,-0.453125 -0.09375,-0.625 -0.40625,-0.953125 C 2.21875,-2.3125 1.921875,-2.40625 1.640625,-2.5 c 0.828125,-0.21875 1.1875,-0.6875 1.1875,-1.265625 z m 0,0"
               id="path9688" />
          </g>
        </g>
      </g>
      <g
         fill="#000000"
         fill-opacity="1"
         id="g9700"
         transform="matrix(0.352778,0,0,0.352778,-0.253559,0.00436558)">
        <g
           id="g9698"
           transform="translate(4.9809999,7.4720001)">
          <path
             d="m 1.265625,-0.765625 1.0625,-1.03125 c 1.546875,-1.375 2.140625,-1.90625 2.140625,-2.90625 0,-1.140625 -0.890625,-1.9375 -2.109375,-1.9375 -1.125,0 -1.859375,0.921875 -1.859375,1.8125 0,0.546875 0.5,0.546875 0.53125,0.546875 0.171875,0 0.515625,-0.109375 0.515625,-0.53125 0,-0.25 -0.1875,-0.515625 -0.53125,-0.515625 -0.078125,0 -0.09375,0 -0.125,0.015625 0.21875,-0.65625 0.765625,-1.015625 1.34375,-1.015625 0.90625,0 1.328125,0.8125 1.328125,1.625 C 3.5625,-3.90625 3.078125,-3.125 2.515625,-2.5 l -1.90625,2.125 C 0.5,-0.265625 0.5,-0.234375 0.5,0 H 4.203125 L 4.46875,-1.734375 H 4.234375 C 4.171875,-1.4375 4.109375,-1 4,-0.84375 3.9375,-0.765625 3.28125,-0.765625 3.0625,-0.765625 Z m 0,0"
             id="path9696" />
        </g>
      </g>
      <g
         clip-path="url(#clipPath9730)"
         id="g9708"
         transform="matrix(0.352778,0,0,0.352778,-0.253559,0.00436558)">
        <g
           fill="#000000"
           fill-opacity="1"
           id="g9706">
          <g
             id="g9704"
             transform="translate(9.9630003,7.4720001)">
            <path
               d="m 2.15625,1.171875 c 0,0.390625 -0.265625,1.03125 -1.34375,1.09375 C 0.75,2.28125 0.71875,2.328125 0.71875,2.375 0.71875,2.5 0.828125,2.5 0.921875,2.5 1.890625,2.5 2.8125,2 2.828125,1.25 v -2.28125 c 0,-0.390625 0,-0.703125 0.390625,-1.03125 C 3.5625,-2.359375 3.953125,-2.375 4.171875,-2.375 4.21875,-2.390625 4.25,-2.4375 4.25,-2.5 4.25,-2.59375 4.203125,-2.59375 4.09375,-2.609375 3.4375,-2.640625 2.953125,-3 2.84375,-3.484375 2.828125,-3.59375 2.828125,-3.625 2.828125,-3.984375 v -1.96875 c 0,-0.421875 0,-0.734375 -0.484375,-1.109375 C 1.9375,-7.375 1.25,-7.484375 0.921875,-7.484375 c -0.09375,0 -0.203125,0 -0.203125,0.125 0,0.09375 0.0625,0.09375 0.15625,0.109375 0.625,0.03125 1.125,0.359375 1.25,0.859375 0.03125,0.09375 0.03125,0.109375 0.03125,0.46875 v 2.09375 c 0,0.453125 0.078125,0.625 0.390625,0.953125 0.21875,0.203125 0.5,0.296875 0.78125,0.375 -0.8125,0.234375 -1.171875,0.703125 -1.171875,1.28125 z m 0,0"
               id="path9702" />
          </g>
        </g>
      </g>
    </g>
  </g>
</svg>
